<svg width="32" height="35" viewBox="0 0 32 35" fill="none" xmlns="http://www.w3.org/2000/svg">
<path d="M32 24.4993V10.4988C31.9991 9.88604 31.8347 9.28408 31.523 8.75257C31.2113 8.22106 30.7632 7.77842 30.223 7.46849L17.7769 0.468257C17.2372 0.161548 16.6241 0 16 0C15.3759 0 14.7628 0.161548 14.2231 0.468257L1.77696 7.46849C1.23485 7.7763 0.785179 8.21846 0.47323 8.75046C0.161281 9.28245 -0.00193478 9.88549 1.73068e-05 10.4988V24.503C0.00123326 25.1155 0.165805 25.7171 0.477456 26.2482C0.789107 26.7794 1.23704 27.2217 1.77696 27.5315L14.2231 34.5317C14.7628 34.8385 15.3759 35 16 35C16.6241 35 17.2372 34.8385 17.7769 34.5317L30.223 27.5315C30.7654 27.2235 31.2153 26.7811 31.5272 26.2487C31.8392 25.7164 32.0023 25.113 32 24.4993Z" stroke="#FFBB00" stroke-width="2.5" stroke-linecap="round" stroke-linejoin="round"/>
<path d="M10.3525 9.20926H21.6466M10.3525 14.3268H21.6466M18.3525 27.6309L10.3525 19.4443H13.1761C19.4518 19.4443 19.4518 9.20926 13.1761 9.20926" stroke="#FFBB00" stroke-width="2.5" stroke-linecap="round" stroke-linejoin="round"/>
</svg>
