<svg width="32" height="32" viewBox="0 0 32 32" fill="none" xmlns="http://www.w3.org/2000/svg">
<path d="M0 19.5581C1.47575 20.6996 3.69293 21.3664 6.22305 21.3362C8.75316 21.3664 10.9703 20.6996 12.4461 19.5581C13.9218 18.4167 16.139 17.7499 18.6691 17.7801C21.1993 17.7499 23.4164 18.4167 24.8922 19.5581M8.89007 0C8.32734 0.403912 7.8714 0.938741 7.56162 1.55829C7.25184 2.17785 7.09755 2.8635 7.11205 3.55603C7.09755 4.24856 7.25184 4.93421 7.56162 5.55376C7.8714 6.17331 8.32734 6.70814 8.89007 7.11205M16.0021 0C15.4394 0.403912 14.9835 0.938741 14.6737 1.55829C14.3639 2.17785 14.2096 2.8635 14.2241 3.55603C14.2096 4.24856 14.3639 4.93421 14.6737 5.55376C14.9835 6.17331 15.4394 6.70814 16.0021 7.11205" stroke="#FFBB00" stroke-width="2.5" stroke-linecap="round" stroke-linejoin="round"/>
<path d="M0 12.4461H24.8922V21.3361C24.8922 24.1655 23.7682 26.879 21.7676 28.8796C19.7669 30.8803 17.0535 32.0042 14.2241 32.0042H10.6681C7.83873 32.0042 5.12526 30.8803 3.12461 28.8796C1.12396 26.879 0 24.1655 0 21.3361V12.4461Z" stroke="#FFBB00" stroke-width="2.5" stroke-linecap="round" stroke-linejoin="round"/>
<path d="M24.4404 24.405C25.2345 24.7696 26.1059 24.9334 26.9782 24.8823C27.8504 24.8311 28.6967 24.5665 29.4427 24.1116C30.1887 23.6568 30.8115 23.0256 31.2565 22.2737C31.7014 21.5217 31.9548 20.672 31.9944 19.7991C32.034 18.9263 31.8586 18.0571 31.4835 17.2679C31.1085 16.4788 30.5454 15.7938 29.8436 15.2733C29.1419 14.7528 28.323 14.4126 27.459 14.2827C26.595 14.1527 25.7123 14.237 24.8885 14.5282" stroke="#FFBB00" stroke-width="2.5" stroke-linecap="round" stroke-linejoin="round"/>
</svg>
