<svg width="300" height="80" viewBox="0 0 300 80" fill="none" xmlns="http://www.w3.org/2000/svg">
<path d="M84.3111 38.1662H82.3168C82.2401 37.7401 82.0973 37.3651 81.8885 37.0412C81.6797 36.7173 81.424 36.4425 81.1214 36.2166C80.8189 35.9908 80.4801 35.8203 80.1051 35.7053C79.7344 35.5902 79.3402 35.5327 78.9226 35.5327C78.1683 35.5327 77.4929 35.7223 76.8963 36.1016C76.304 36.4808 75.8352 37.0369 75.4901 37.7699C75.1491 38.5028 74.9787 39.3977 74.9787 40.4545C74.9787 41.5199 75.1491 42.419 75.4901 43.152C75.8352 43.8849 76.3061 44.4389 76.9027 44.8139C77.4993 45.1889 78.1705 45.3764 78.9162 45.3764C79.3295 45.3764 79.7216 45.321 80.0923 45.2102C80.4673 45.0952 80.8061 44.9268 81.1087 44.7053C81.4112 44.4837 81.6669 44.2131 81.8757 43.8935C82.0888 43.5696 82.2358 43.1989 82.3168 42.7812L84.3111 42.7876C84.2045 43.4311 83.9979 44.0234 83.6911 44.5646C83.3885 45.1016 82.9986 45.5661 82.5213 45.9581C82.0483 46.3459 81.5071 46.6463 80.8977 46.8594C80.2884 47.0724 79.6236 47.179 78.9034 47.179C77.7699 47.179 76.7599 46.9105 75.8736 46.3736C74.9872 45.8324 74.2884 45.0589 73.777 44.0533C73.2699 43.0476 73.0163 41.848 73.0163 40.4545C73.0163 39.0568 73.272 37.8572 73.7834 36.8558C74.2947 35.8501 74.9936 35.0788 75.88 34.5419C76.7663 34.0007 77.7741 33.7301 78.9034 33.7301C79.598 33.7301 80.2457 33.8303 80.8466 34.0305C81.4517 34.2266 81.995 34.5163 82.4766 34.8999C82.9581 35.2791 83.3565 35.7436 83.6719 36.2933C83.9872 36.8388 84.2003 37.4631 84.3111 38.1662ZM90.6568 47.1982C89.7363 47.1982 88.9331 46.9872 88.247 46.5653C87.5609 46.1435 87.0282 45.5533 86.649 44.7947C86.2697 44.0362 86.0801 43.1499 86.0801 42.1357C86.0801 41.1172 86.2697 40.2266 86.649 39.4638C87.0282 38.701 87.5609 38.1087 88.247 37.6868C88.9331 37.2649 89.7363 37.054 90.6568 37.054C91.5772 37.054 92.3805 37.2649 93.0666 37.6868C93.7527 38.1087 94.2853 38.701 94.6646 39.4638C95.0439 40.2266 95.2335 41.1172 95.2335 42.1357C95.2335 43.1499 95.0439 44.0362 94.6646 44.7947C94.2853 45.5533 93.7527 46.1435 93.0666 46.5653C92.3805 46.9872 91.5772 47.1982 90.6568 47.1982ZM90.6632 45.5938C91.2598 45.5938 91.7541 45.4361 92.1461 45.1207C92.5382 44.8054 92.8279 44.3857 93.0154 43.8615C93.2072 43.3374 93.3031 42.7599 93.3031 42.1293C93.3031 41.5028 93.2072 40.9276 93.0154 40.4034C92.8279 39.875 92.5382 39.451 92.1461 39.1314C91.7541 38.8118 91.2598 38.652 90.6632 38.652C90.0623 38.652 89.5637 38.8118 89.1674 39.1314C88.7754 39.451 88.4835 39.875 88.2917 40.4034C88.1042 40.9276 88.0105 41.5028 88.0105 42.1293C88.0105 42.7599 88.1042 43.3374 88.2917 43.8615C88.4835 44.3857 88.7754 44.8054 89.1674 45.1207C89.5637 45.4361 90.0623 45.5938 90.6632 45.5938ZM97.3668 47V37.1818H99.2013V38.7798H99.3228C99.5273 38.2386 99.8619 37.8168 100.326 37.5142C100.791 37.2074 101.347 37.054 101.995 37.054C102.651 37.054 103.201 37.2074 103.644 37.5142C104.091 37.821 104.422 38.2429 104.635 38.7798H104.737C104.971 38.2557 105.344 37.8381 105.855 37.527C106.367 37.2116 106.976 37.054 107.684 37.054C108.574 37.054 109.301 37.3331 109.863 37.8913C110.43 38.4496 110.713 39.2912 110.713 40.4162V47H108.802V40.5952C108.802 39.9304 108.621 39.4489 108.259 39.1506C107.897 38.8523 107.464 38.7031 106.961 38.7031C106.339 38.7031 105.855 38.8949 105.51 39.2784C105.165 39.6577 104.993 40.1456 104.993 40.7422V47H103.088V40.4737C103.088 39.9411 102.922 39.5128 102.589 39.1889C102.257 38.8651 101.824 38.7031 101.292 38.7031C100.929 38.7031 100.595 38.799 100.288 38.9908C99.9854 39.1783 99.7404 39.4403 99.5529 39.777C99.3697 40.1136 99.2781 40.5036 99.2781 40.9467V47H97.3668ZM113.275 47V37.1818H115.11V38.7798H115.231C115.436 38.2386 115.77 37.8168 116.235 37.5142C116.699 37.2074 117.255 37.054 117.903 37.054C118.559 37.054 119.109 37.2074 119.552 37.5142C119.999 37.821 120.33 38.2429 120.543 38.7798H120.645C120.879 38.2557 121.252 37.8381 121.764 37.527C122.275 37.2116 122.884 37.054 123.592 37.054C124.482 37.054 125.209 37.3331 125.771 37.8913C126.338 38.4496 126.622 39.2912 126.622 40.4162V47H124.71V40.5952C124.71 39.9304 124.529 39.4489 124.167 39.1506C123.805 38.8523 123.372 38.7031 122.869 38.7031C122.247 38.7031 121.764 38.8949 121.419 39.2784C121.073 39.6577 120.901 40.1456 120.901 40.7422V47H118.996V40.4737C118.996 39.9411 118.83 39.5128 118.497 39.1889C118.165 38.8651 117.732 38.7031 117.2 38.7031C116.838 38.7031 116.503 38.799 116.196 38.9908C115.894 39.1783 115.649 39.4403 115.461 39.777C115.278 40.1136 115.186 40.5036 115.186 40.9467V47H113.275ZM135.403 42.9283V37.1818H137.32V47H135.441V45.2997H135.339C135.113 45.8239 134.751 46.2607 134.252 46.6101C133.758 46.9553 133.142 47.1278 132.405 47.1278C131.774 47.1278 131.216 46.9893 130.73 46.7124C130.249 46.4311 129.869 46.0156 129.592 45.4659C129.32 44.9162 129.183 44.2365 129.183 43.4268V37.1818H131.094V43.1967C131.094 43.8658 131.28 44.3984 131.651 44.7947C132.021 45.1911 132.503 45.3892 133.095 45.3892C133.453 45.3892 133.809 45.2997 134.163 45.1207C134.521 44.9418 134.817 44.6712 135.051 44.3089C135.29 43.9467 135.407 43.4865 135.403 42.9283ZM141.8 41.1705V47H139.888V37.1818H141.723V38.7798H141.844C142.07 38.2599 142.424 37.8423 142.905 37.527C143.391 37.2116 144.003 37.054 144.74 37.054C145.409 37.054 145.995 37.1946 146.498 37.4759C147.001 37.7528 147.39 38.1662 147.667 38.7159C147.944 39.2656 148.083 39.9453 148.083 40.755V47H146.172V40.9851C146.172 40.2734 145.986 39.7173 145.616 39.3168C145.245 38.9119 144.736 38.7095 144.088 38.7095C143.645 38.7095 143.251 38.8054 142.905 38.9972C142.564 39.1889 142.294 39.4702 142.094 39.8409C141.898 40.2074 141.8 40.6506 141.8 41.1705ZM150.646 47V37.1818H152.557V47H150.646ZM151.611 35.6669C151.279 35.6669 150.993 35.5561 150.755 35.3345C150.52 35.1087 150.403 34.8402 150.403 34.5291C150.403 34.2138 150.52 33.9453 150.755 33.7237C150.993 33.4979 151.279 33.3849 151.611 33.3849C151.944 33.3849 152.227 33.4979 152.461 33.7237C152.7 33.9453 152.819 34.2138 152.819 34.5291C152.819 34.8402 152.7 35.1087 152.461 35.3345C152.227 35.5561 151.944 35.6669 151.611 35.6669ZM159.712 37.1818V38.7159H154.349V37.1818H159.712ZM155.787 34.8295H157.698V44.1172C157.698 44.4879 157.754 44.767 157.864 44.9545C157.975 45.1378 158.118 45.2635 158.293 45.3317C158.472 45.3956 158.665 45.4276 158.874 45.4276C159.028 45.4276 159.162 45.4169 159.277 45.3956C159.392 45.3743 159.482 45.3572 159.545 45.3445L159.891 46.9233C159.78 46.9659 159.622 47.0085 159.418 47.0511C159.213 47.098 158.957 47.1236 158.651 47.1278C158.148 47.1364 157.679 47.0469 157.244 46.8594C156.81 46.6719 156.458 46.3821 156.19 45.9901C155.921 45.598 155.787 45.1058 155.787 44.5135V34.8295ZM163.034 50.6818C162.748 50.6818 162.488 50.6584 162.254 50.6115C162.02 50.5689 161.845 50.522 161.73 50.4709L162.19 48.9048C162.54 48.9986 162.851 49.0391 163.123 49.0263C163.396 49.0135 163.637 48.9112 163.846 48.7195C164.059 48.5277 164.246 48.2145 164.408 47.7798L164.645 47.1278L161.052 37.1818H163.098L165.584 44.8011H165.687L168.173 37.1818H170.225L166.179 48.3104C165.991 48.8217 165.753 49.2543 165.463 49.608C165.173 49.9659 164.828 50.2344 164.427 50.4134C164.027 50.5923 163.562 50.6818 163.034 50.6818ZM176.938 47V33.9091H185.146V35.6094H178.913V39.598H184.717V41.2919H178.913V45.2997H185.222V47H176.938ZM196.03 37.1818L192.469 47H190.424L186.857 37.1818H188.909L191.395 44.7372H191.498L193.978 37.1818H196.03ZM201.723 47.1982C200.756 47.1982 199.923 46.9915 199.224 46.5781C198.529 46.1605 197.993 45.5746 197.613 44.8203C197.238 44.0618 197.051 43.1733 197.051 42.1548C197.051 41.1491 197.238 40.2628 197.613 39.4957C197.993 38.7287 198.521 38.13 199.199 37.6996C199.88 37.2692 200.677 37.054 201.589 37.054C202.143 37.054 202.68 37.1456 203.2 37.3288C203.72 37.5121 204.186 37.7997 204.6 38.1918C205.013 38.5838 205.339 39.093 205.578 39.7195C205.816 40.3416 205.936 41.098 205.936 41.9886V42.6662H198.131V41.2344H204.063C204.063 40.7315 203.961 40.2862 203.756 39.8984C203.551 39.5064 203.264 39.1974 202.893 38.9716C202.527 38.7457 202.096 38.6328 201.602 38.6328C201.065 38.6328 200.596 38.7649 200.196 39.0291C199.799 39.2891 199.493 39.63 199.275 40.0518C199.062 40.4695 198.956 40.9233 198.956 41.4134V42.532C198.956 43.1882 199.071 43.7464 199.301 44.2067C199.535 44.6669 199.861 45.0185 200.279 45.2614C200.696 45.5 201.184 45.6193 201.743 45.6193C202.105 45.6193 202.435 45.5682 202.733 45.4659C203.032 45.3594 203.289 45.2017 203.507 44.9929C203.724 44.7841 203.89 44.5263 204.005 44.2195L205.814 44.5455C205.669 45.0781 205.409 45.5447 205.034 45.9453C204.664 46.3416 204.197 46.6506 203.635 46.8722C203.076 47.0895 202.439 47.1982 201.723 47.1982ZM209.968 41.1705V47H208.056V37.1818H209.891V38.7798H210.012C210.238 38.2599 210.592 37.8423 211.073 37.527C211.559 37.2116 212.171 37.054 212.908 37.054C213.577 37.054 214.163 37.1946 214.666 37.4759C215.169 37.7528 215.558 38.1662 215.835 38.7159C216.112 39.2656 216.251 39.9453 216.251 40.755V47H214.34V40.9851C214.34 40.2734 214.154 39.7173 213.784 39.3168C213.413 38.9119 212.904 38.7095 212.256 38.7095C211.813 38.7095 211.419 38.8054 211.073 38.9972C210.732 39.1889 210.462 39.4702 210.262 39.8409C210.066 40.2074 209.968 40.6506 209.968 41.1705ZM223.397 37.1818V38.7159H218.034V37.1818H223.397ZM219.472 34.8295H221.384V44.1172C221.384 44.4879 221.439 44.767 221.55 44.9545C221.661 45.1378 221.803 45.2635 221.978 45.3317C222.157 45.3956 222.351 45.4276 222.56 45.4276C222.713 45.4276 222.847 45.4169 222.963 45.3956C223.078 45.3743 223.167 45.3572 223.231 45.3445L223.576 46.9233C223.465 46.9659 223.308 47.0085 223.103 47.0511C222.899 47.098 222.643 47.1236 222.336 47.1278C221.833 47.1364 221.365 47.0469 220.93 46.8594C220.495 46.6719 220.144 46.3821 219.875 45.9901C219.607 45.598 219.472 45.1058 219.472 44.5135V34.8295ZM232.71 39.5788L230.978 39.8857C230.906 39.6641 230.791 39.4531 230.633 39.2528C230.48 39.0526 230.271 38.8885 230.007 38.7607C229.742 38.6328 229.412 38.5689 229.016 38.5689C228.475 38.5689 228.023 38.6903 227.661 38.9332C227.298 39.1719 227.117 39.4808 227.117 39.8601C227.117 40.1882 227.239 40.4524 227.482 40.6527C227.725 40.853 228.117 41.017 228.658 41.1449L230.218 41.5028C231.121 41.7116 231.794 42.0334 232.237 42.468C232.681 42.9027 232.902 43.4673 232.902 44.1619C232.902 44.75 232.732 45.2741 232.391 45.7344C232.054 46.1903 231.583 46.5483 230.978 46.8082C230.377 47.0682 229.681 47.1982 228.888 47.1982C227.789 47.1982 226.892 46.9638 226.197 46.495C225.502 46.022 225.076 45.3509 224.919 44.4815L226.766 44.2003C226.881 44.6818 227.117 45.0462 227.475 45.2933C227.833 45.5362 228.3 45.6577 228.875 45.6577C229.502 45.6577 230.002 45.5277 230.377 45.2678C230.752 45.0036 230.94 44.6818 230.94 44.3026C230.94 43.9957 230.825 43.7379 230.595 43.5291C230.369 43.3203 230.021 43.1626 229.553 43.0561L227.891 42.6918C226.975 42.483 226.297 42.1506 225.858 41.6946C225.423 41.2386 225.206 40.6612 225.206 39.9624C225.206 39.3828 225.368 38.8757 225.692 38.4411C226.016 38.0064 226.463 37.6676 227.034 37.4247C227.605 37.1776 228.259 37.054 228.997 37.054C230.058 37.054 230.893 37.2841 231.502 37.7443C232.112 38.2003 232.514 38.8118 232.71 39.5788Z" fill="#263238"/>
<path d="M45.5 34L48.8456 39.9256L56 40.8748L50.75 45.4876L52.0625 52L45.5 48.9256L38.9375 52L40.25 45.4876L35 40.8748L42.35 39.9256L45.5 34Z" fill="#FFBB00"/>
<path d="M55 28.9231C55 28.2702 54.7278 27.6441 54.2434 27.1825C53.7589 26.7209 53.1018 26.4615 52.4167 26.4615H47.25V24H44.6667V26.4615H34.3333V24H31.75V26.4615H26.5833C25.8982 26.4615 25.2411 26.7209 24.7566 27.1825C24.2722 27.6441 24 28.2702 24 28.9231V53.5385C24 54.1913 24.2722 54.8174 24.7566 55.279C25.2411 55.7407 25.8982 56 26.5833 56H31.75V53.5385H26.5833V28.9231H31.75V31.3846H34.3333V28.9231H44.6667V31.3846H47.25V28.9231H52.4167V36.3077H55V28.9231Z" fill="#FFBB00"/>
</svg>
