<svg width="32" height="32" viewBox="0 0 32 32" fill="none" xmlns="http://www.w3.org/2000/svg">
<path d="M15.111 4.44446V7.11112H12.4443V8.8889H15.111V11.5556H16.8888V8.8889H19.5554V7.11112H16.8888V4.44446H15.111Z" fill="#FFBB00"/>
<path fill-rule="evenodd" clip-rule="evenodd" d="M0 2.66667C0 1.95942 0.280952 1.28115 0.781049 0.781049C1.28115 0.280952 1.95942 0 2.66667 0H29.3333C30.0406 0 30.7189 0.280952 31.219 0.781049C31.719 1.28115 32 1.95942 32 2.66667V29.3333C32 30.0406 31.719 30.7189 31.219 31.219C30.7189 31.719 30.0406 32 29.3333 32H2.66667C1.95942 32 1.28115 31.719 0.781049 31.219C0.280952 30.7189 0 30.0406 0 29.3333V2.66667ZM1.77778 2.66667C1.77778 2.43092 1.87143 2.20483 2.03813 2.03813C2.20483 1.87143 2.43092 1.77778 2.66667 1.77778H29.3333C29.5691 1.77778 29.7952 1.87143 29.9619 2.03813C30.1286 2.20483 30.2222 2.43092 30.2222 2.66667V25.7778H27.8524C27.8524 25.722 27.847 25.6663 27.8364 25.6116L26.6898 19.5964L28.4098 13.5778C28.4746 13.3511 28.4467 13.108 28.3323 12.9018C28.2179 12.6957 28.0262 12.5435 27.7996 12.4787C27.5729 12.4138 27.3297 12.4417 27.1236 12.5561C26.9175 12.6706 26.7653 12.8622 26.7004 13.0889L25.6347 16.8204H18.6667V18.5982H19.8293V20.1022H19.3502C19.1451 20.1021 18.9463 20.173 18.7874 20.3028C18.6286 20.4325 18.5195 20.6132 18.4787 20.8143C18.4379 21.0153 18.4679 21.2242 18.5635 21.4057C18.6592 21.5871 18.8146 21.7299 19.0036 21.8098L17.8196 25.5076C17.7918 25.5949 17.7777 25.6861 17.7778 25.7778H14.2222C14.2221 25.6857 14.2077 25.5943 14.1796 25.5067L12.9973 21.8098C13.1858 21.7295 13.3407 21.5866 13.4359 21.4053C13.5312 21.224 13.5608 21.0153 13.52 20.8146C13.4791 20.6139 13.3702 20.4335 13.2116 20.3039C13.0531 20.1742 12.8546 20.1033 12.6498 20.1031H12.1707V18.5982H13.3333V16.8204H6.36444L5.29867 13.0889C5.26931 12.9737 5.21712 12.8655 5.1452 12.7708C5.07328 12.6761 4.98309 12.5968 4.87997 12.5375C4.77685 12.4783 4.66289 12.4404 4.54485 12.426C4.42681 12.4116 4.30708 12.4211 4.19275 12.4538C4.07842 12.4865 3.97182 12.5418 3.87926 12.6165C3.78669 12.6911 3.71005 12.7836 3.65387 12.8884C3.59769 12.9932 3.56311 13.1082 3.55217 13.2266C3.54124 13.3451 3.55418 13.4645 3.59022 13.5778L5.30933 19.5964L4.16356 25.6116C4.15308 25.6663 4.14773 25.722 4.14756 25.7778H1.77778V2.66667ZM29.3333 30.2222C29.5691 30.2222 29.7952 30.1286 29.9619 29.9619C30.1286 29.7952 30.2222 29.5691 30.2222 29.3333V27.5556H1.77778V29.3333C1.77778 29.5691 1.87143 29.7952 2.03813 29.9619C2.20483 30.1286 2.43092 30.2222 2.66667 30.2222H29.3333ZM24.9049 19.7218L24.9769 20.1022H21.6071V18.5982H25.1271L24.9227 19.3111C24.8847 19.4447 24.8786 19.5854 24.9049 19.7218ZM26.0578 25.7778L25.3804 22.2222H20.7378L19.6 25.7778H26.0578ZM7.09511 19.7218L7.02311 20.1022H10.3929V18.5982H6.87289L7.07733 19.3111C7.11526 19.4447 7.12135 19.5854 7.09511 19.7218ZM5.94222 25.7778L6.61956 22.2222H11.2622L12.4 25.7778H5.94222Z" fill="#FFBB00" stroke="#FFBB00" stroke-width="0.5"/>
</svg>
