<svg width="12" height="12" viewBox="0 0 12 12" fill="none" xmlns="http://www.w3.org/2000/svg">
<g filter="url(#filter0_d_501_1738)">
<path d="M5.59069 -0.0995808L5.59064 -0.099576C4.96645 -0.0383816 4.57355 0.0404682 4.07319 0.205612L4.10453 0.300574L4.07319 0.205613C2.0639 0.868802 0.545871 2.53275 0.0506256 4.61704C-0.0678332 5.11064 -0.1 5.40468 -0.1 5.99795C-0.1 6.68531 -0.0431324 7.10454 0.136666 7.71792C0.167962 7.828 0.225798 7.99885 0.278374 8.14473C0.304793 8.21803 0.330252 8.28605 0.350805 8.33796C0.361038 8.3638 0.370367 8.38644 0.378176 8.40403C0.382048 8.41275 0.385954 8.42116 0.389707 8.42849L0.389776 8.42862C0.392247 8.43345 0.398693 8.44604 0.408061 8.45729L0.413881 8.46427L0.414172 8.46398C0.442054 8.49186 0.475686 8.49339 0.480943 8.49363C0.481106 8.49364 0.481242 8.49364 0.481349 8.49365C0.491635 8.49419 0.500111 8.49313 0.504294 8.49252C0.513394 8.49121 0.521976 8.48899 0.527931 8.48732C0.540764 8.48374 0.556174 8.47851 0.571882 8.47283C0.603944 8.46122 0.644858 8.44492 0.685424 8.42789C0.726061 8.41083 0.767689 8.39247 0.801213 8.37654C0.817863 8.36864 0.833477 8.36088 0.846326 8.35388C0.852704 8.35041 0.859355 8.34661 0.865537 8.34267C0.869561 8.34011 0.878029 8.33462 0.886561 8.32681C0.912198 8.3038 0.918845 8.27541 0.920887 8.26438C0.923565 8.24992 0.923297 8.23682 0.92273 8.22803C0.92156 8.20989 0.917671 8.19079 0.913436 8.17385C0.904683 8.13884 0.890216 8.09662 0.873308 8.055L0.872706 8.05352L0.872694 8.05353C0.793068 7.86617 0.673525 7.48423 0.618683 7.25068C0.511581 6.77937 0.487932 6.55671 0.49033 5.97411C0.492742 5.47497 0.499909 5.37233 0.554214 5.07011L0.554232 5.07001C0.80924 3.64244 1.55208 2.43084 2.70258 1.56856L2.7026 1.56855C4.55722 0.178179 7.11957 0.109057 9.05054 1.39955L9.05063 1.39961C9.20918 1.50531 9.34562 1.60369 9.43863 1.67727C9.45777 1.69242 9.47469 1.70621 9.48933 1.71855C9.446 1.74872 9.39048 1.787 9.33081 1.82789L9.33045 1.82814C9.20356 1.9159 9.11189 1.98586 9.06216 2.05509C9.03477 2.09321 9.01671 2.13531 9.01375 2.18309C9.01093 2.22862 9.02247 2.26992 9.03739 2.3061C9.0485 2.33509 9.06477 2.36285 9.08191 2.38543C9.09635 2.40445 9.12142 2.43329 9.15501 2.44909C9.16525 2.45409 9.17756 2.45859 9.185 2.46131L9.18554 2.46151C9.19813 2.46612 9.21468 2.4719 9.23442 2.47863C9.27403 2.49213 9.32831 2.51004 9.39325 2.53103C9.52316 2.57302 9.69692 2.62769 9.88395 2.68478C9.88404 2.68481 9.88414 2.68484 9.88424 2.68487L9.91343 2.58922C10.6432 2.81712 10.728 2.82924 10.8032 2.72499C10.842 2.67165 10.8493 2.58437 10.8638 1.92978L5.59069 -0.0995808ZM5.59069 -0.0995808C5.69804 -0.110054 5.94381 -0.107202 6.18999 -0.0978603C6.43779 -0.0884581 6.69837 -0.0719738 6.83812 -0.0530901L6.83856 -0.0530291C7.93256 0.0997381 9.02892 0.574881 9.84873 1.25394L9.84913 1.25427C9.90041 1.29721 9.94832 1.33564 9.98415 1.36302C9.98765 1.36569 9.99101 1.36824 9.9942 1.37064C10.0061 1.36312 10.0197 1.35433 10.035 1.34442C10.0914 1.3077 10.1676 1.2567 10.2493 1.2002L10.2495 1.20009C10.413 1.08749 10.5315 1.0128 10.6257 0.986207C10.6775 0.971596 10.7294 0.968998 10.7808 0.986844C10.8299 1.00388 10.8673 1.03582 10.8977 1.06828C10.8978 1.06844 10.898 1.0686 10.8981 1.06876L10.953 1.12599L10.9817 1.15597L10.9807 1.19749L10.9638 1.932M5.59069 -0.0995808L10.9638 1.932M10.9638 1.932L10.9638 1.93209C10.9565 2.25828 10.951 2.44688 10.9423 2.56052C10.9338 2.67057 10.9217 2.73185 10.8843 2.78347L10.9638 1.932ZM9.97497 2.09593L10.1279 2.14479L10.1281 2.14485L10.3595 2.21824L10.3689 2.09951C10.3689 2.09939 10.3689 2.09928 10.3689 2.09917C10.3759 2.00308 10.3802 1.89466 10.3812 1.82156L10.1659 1.96649L10.1657 1.96667L9.97497 2.09593Z" fill="#FFBB00" stroke="#FFBB00" stroke-width="0.2"/>
<path d="M12.056 6.83732L12.0561 6.8368C12.0826 6.65619 12.0972 6.34063 12.0996 6.033C12.102 5.72576 12.0925 5.41495 12.0683 5.24448L12.0683 5.24438C11.9922 4.7119 11.8644 4.21218 11.7037 3.79915C11.7037 3.79914 11.7037 3.79913 11.7037 3.79912L12.056 6.83732ZM12.056 6.83732C11.7482 8.8589 10.5311 10.5575 8.74122 11.455M12.056 6.83732L8.74122 11.455M3.28926 11.4674L3.33354 11.3777L3.28926 11.4674ZM3.28926 11.4674C5.01678 12.3225 7.01841 12.3201 8.74122 11.455M3.28926 11.4674L8.74122 11.455M10.9846 3.00523L10.9848 3.00514L0.634574 9.72567L0.734568 9.72672L0.634575 9.72558L0.634574 9.72563C0.639363 9.26832 0.644451 9.00827 0.673882 8.86475C0.688729 8.79235 0.714003 8.72517 0.770604 8.68222C0.826441 8.63985 0.892337 8.63756 0.938219 8.63756C0.954874 8.63756 0.974229 8.64114 0.987371 8.64373C1.00361 8.64693 1.02354 8.65143 1.0462 8.65691C1.09167 8.66791 1.15129 8.6836 1.22054 8.70267C1.35921 8.74085 1.53892 8.79324 1.72625 8.85041L1.72629 8.85043C2.08675 8.9606 2.29441 9.02649 2.40992 9.08507C2.46907 9.11507 2.51825 9.1498 2.54933 9.19961C2.58143 9.25104 2.585 9.30398 2.585 9.34609C2.585 9.37897 2.58015 9.41419 2.56284 9.4511C2.54621 9.48654 2.52111 9.51706 2.49061 9.5461C2.43218 9.60173 2.33543 9.66859 2.18608 9.76657C2.18601 9.76661 2.18595 9.76665 2.18588 9.76669L2.05719 9.85204L2.14888 9.945L2.14894 9.94505C3.23987 11.0526 4.89979 11.644 6.50034 11.4964L6.50035 11.4964C8.85339 11.2796 10.813 9.59347 11.3654 7.30551L11.3654 7.30528C11.4846 6.81687 11.5129 6.57518 11.5129 5.99797C11.5129 5.44202 11.4869 5.20231 11.3822 4.74529C11.2846 4.32433 11.072 3.75621 10.8829 3.41096C10.8828 3.41087 10.8828 3.41078 10.8827 3.41069L10.7861 3.23664L10.739 3.1519L10.8222 3.10221L10.9846 3.00523ZM0.722815 10.4908C0.722596 10.4906 0.722376 10.4904 0.722157 10.4902L0.785481 10.4128L0.723411 10.4912L0.722815 10.4908ZM1.73188 10.366L1.73172 10.3658L3.28918 11.4674C2.69048 11.1717 2.22144 10.8383 1.73188 10.366ZM1.52419 9.40517L1.52376 9.40503C1.40701 9.36797 1.29143 9.33408 1.22732 9.31711V9.54489V9.71044L1.39322 9.59818C1.47905 9.53857 1.5608 9.4817 1.62371 9.43702C1.59619 9.42791 1.56331 9.41739 1.52419 9.40517ZM1.56614 10.0661L1.62274 10.1486L1.55529 10.1949L1.49655 10.1379L1.56614 10.0661Z" fill="#FFBB00" stroke="#FFBB00" stroke-width="0.2"/>
<mask id="path-3-outside-1_501_1738" maskUnits="userSpaceOnUse" x="0.733398" y="2.9375" width="10" height="6" fill="black">
<rect fill="white" x="0.733398" y="2.9375" width="10" height="6"/>
<path d="M3.24866 3.89843C2.98925 3.98086 2.79772 4.14572 2.68619 4.38573C2.62801 4.50938 2.61831 4.56272 2.61831 4.73727C2.61831 4.92395 2.62558 4.96032 2.69832 5.10821C2.74438 5.20034 2.7759 5.27549 2.77105 5.28034C2.76862 5.28277 2.71529 5.30701 2.65468 5.33125C2.49466 5.40156 2.30314 5.60279 2.21101 5.79674L2.13343 5.9616L2.12615 6.65741L2.11888 7.35564H2.31283H2.50921V6.73499C2.50921 6.31799 2.51891 6.0804 2.5383 6.01252C2.57709 5.87917 2.77832 5.67795 2.91166 5.63916C3.04743 5.60036 3.91052 5.60036 4.04629 5.63916C4.17963 5.67795 4.38086 5.87917 4.41965 6.01252C4.47541 6.19919 4.48753 6.19192 4.12387 6.19192C3.84991 6.19192 3.79173 6.19919 3.74809 6.23314C3.71172 6.26465 3.66081 6.40769 3.56141 6.74954C3.48867 7.00895 3.40624 7.29503 3.37958 7.38473L3.33109 7.54959H2.53346H1.7334V7.74355V7.9375H6.00037H10.2673V7.74355V7.54959H9.9158C9.72184 7.54959 9.56426 7.54232 9.56426 7.5302C9.56426 7.5205 9.63456 7.26594 9.72184 6.96289C9.80912 6.65983 9.87943 6.3883 9.87943 6.36163C9.87943 6.33254 9.85276 6.28405 9.81882 6.25253C9.76063 6.19192 9.75336 6.19192 9.33879 6.19192H8.91451L8.89997 6.061C8.8636 5.77492 8.62116 5.44035 8.37629 5.33125C8.31568 5.30701 8.26235 5.28277 8.25992 5.28034C8.25507 5.27549 8.28659 5.20034 8.33265 5.10821C8.40539 4.96032 8.41266 4.92395 8.41266 4.73727C8.41266 4.56272 8.40296 4.50938 8.34478 4.38573C8.02475 3.69962 7.07923 3.69962 6.75921 4.38573C6.70102 4.50938 6.69133 4.56272 6.69133 4.73727C6.69133 4.92395 6.6986 4.96032 6.77133 5.10821C6.8174 5.20034 6.84891 5.27549 6.84406 5.28034C6.84164 5.28277 6.7883 5.30701 6.72769 5.33125C6.56768 5.40156 6.37615 5.60279 6.28402 5.79674L6.20644 5.9616L6.19917 6.65741L6.1919 7.35564H6.38585H6.58223V6.73499C6.58223 6.31799 6.59192 6.0804 6.61132 6.01252C6.65011 5.87917 6.85134 5.67795 6.98468 5.63916C7.12045 5.60036 7.98354 5.60036 8.11931 5.63916C8.25265 5.67795 8.45387 5.87917 8.49267 6.01252C8.54843 6.19919 8.56055 6.19192 8.19689 6.19192C7.92293 6.19192 7.86474 6.19919 7.8211 6.23314C7.78474 6.26465 7.73382 6.40769 7.63442 6.74954C7.56169 7.00895 7.47926 7.29503 7.45259 7.38473L7.4041 7.54959H6.44888C5.92279 7.54959 5.49124 7.54232 5.49124 7.5302C5.49124 7.5205 5.56155 7.26594 5.64883 6.96289C5.73611 6.65983 5.80641 6.3883 5.80641 6.36163C5.80641 6.33254 5.77975 6.28405 5.7458 6.25253C5.68762 6.19192 5.68034 6.19192 5.26577 6.19192H4.8415L4.82695 6.061C4.79058 5.77492 4.54814 5.44035 4.30328 5.33125C4.24267 5.30701 4.18933 5.28277 4.18691 5.28034C4.18206 5.27549 4.21357 5.20034 4.25964 5.10821C4.33237 4.96032 4.33964 4.92395 4.33964 4.73727C4.33964 4.56272 4.32995 4.50938 4.27176 4.38573C4.19903 4.22815 4.07538 4.08511 3.93719 3.99783C3.74809 3.87661 3.45473 3.83297 3.24866 3.89843ZM3.75536 4.34209C3.8887 4.43665 3.95174 4.56756 3.95174 4.7494C3.95174 5.02335 3.76506 5.21003 3.49352 5.21003C3.14926 5.21003 2.92863 4.92395 3.01591 4.59666C3.04986 4.47301 3.19774 4.313 3.31412 4.27906C3.44988 4.23784 3.64626 4.26451 3.75536 4.34209ZM7.82838 4.34209C7.96172 4.43665 8.02475 4.56756 8.02475 4.7494C8.02475 5.02335 7.83807 5.21003 7.56654 5.21003C7.22227 5.21003 7.00165 4.92395 7.08893 4.59666C7.12287 4.47301 7.27076 4.313 7.38713 4.27906C7.5229 4.23784 7.71928 4.26451 7.82838 4.34209ZM5.34578 6.59922C5.34578 6.61619 5.23668 7.00895 5.12515 7.38473L5.07667 7.54959H4.41238C4.04629 7.54959 3.74566 7.5399 3.74566 7.5302C3.74566 7.51323 3.85476 7.12047 3.96628 6.74226L4.01477 6.57983H4.67906C5.04515 6.57983 5.34578 6.58953 5.34578 6.59922ZM9.41879 6.59922C9.41879 6.61619 9.30969 7.00895 9.19817 7.38473L9.14968 7.54959H8.48539C8.11931 7.54959 7.81868 7.5399 7.81868 7.5302C7.81868 7.51323 7.92778 7.12047 8.0393 6.74226L8.08779 6.57983H8.75208C9.11816 6.57983 9.41879 6.58953 9.41879 6.59922Z"/>
</mask>
<path d="M3.24866 3.89843C2.98925 3.98086 2.79772 4.14572 2.68619 4.38573C2.62801 4.50938 2.61831 4.56272 2.61831 4.73727C2.61831 4.92395 2.62558 4.96032 2.69832 5.10821C2.74438 5.20034 2.7759 5.27549 2.77105 5.28034C2.76862 5.28277 2.71529 5.30701 2.65468 5.33125C2.49466 5.40156 2.30314 5.60279 2.21101 5.79674L2.13343 5.9616L2.12615 6.65741L2.11888 7.35564H2.31283H2.50921V6.73499C2.50921 6.31799 2.51891 6.0804 2.5383 6.01252C2.57709 5.87917 2.77832 5.67795 2.91166 5.63916C3.04743 5.60036 3.91052 5.60036 4.04629 5.63916C4.17963 5.67795 4.38086 5.87917 4.41965 6.01252C4.47541 6.19919 4.48753 6.19192 4.12387 6.19192C3.84991 6.19192 3.79173 6.19919 3.74809 6.23314C3.71172 6.26465 3.66081 6.40769 3.56141 6.74954C3.48867 7.00895 3.40624 7.29503 3.37958 7.38473L3.33109 7.54959H2.53346H1.7334V7.74355V7.9375H6.00037H10.2673V7.74355V7.54959H9.9158C9.72184 7.54959 9.56426 7.54232 9.56426 7.5302C9.56426 7.5205 9.63456 7.26594 9.72184 6.96289C9.80912 6.65983 9.87943 6.3883 9.87943 6.36163C9.87943 6.33254 9.85276 6.28405 9.81882 6.25253C9.76063 6.19192 9.75336 6.19192 9.33879 6.19192H8.91451L8.89997 6.061C8.8636 5.77492 8.62116 5.44035 8.37629 5.33125C8.31568 5.30701 8.26235 5.28277 8.25992 5.28034C8.25507 5.27549 8.28659 5.20034 8.33265 5.10821C8.40539 4.96032 8.41266 4.92395 8.41266 4.73727C8.41266 4.56272 8.40296 4.50938 8.34478 4.38573C8.02475 3.69962 7.07923 3.69962 6.75921 4.38573C6.70102 4.50938 6.69133 4.56272 6.69133 4.73727C6.69133 4.92395 6.6986 4.96032 6.77133 5.10821C6.8174 5.20034 6.84891 5.27549 6.84406 5.28034C6.84164 5.28277 6.7883 5.30701 6.72769 5.33125C6.56768 5.40156 6.37615 5.60279 6.28402 5.79674L6.20644 5.9616L6.19917 6.65741L6.1919 7.35564H6.38585H6.58223V6.73499C6.58223 6.31799 6.59192 6.0804 6.61132 6.01252C6.65011 5.87917 6.85134 5.67795 6.98468 5.63916C7.12045 5.60036 7.98354 5.60036 8.11931 5.63916C8.25265 5.67795 8.45387 5.87917 8.49267 6.01252C8.54843 6.19919 8.56055 6.19192 8.19689 6.19192C7.92293 6.19192 7.86474 6.19919 7.8211 6.23314C7.78474 6.26465 7.73382 6.40769 7.63442 6.74954C7.56169 7.00895 7.47926 7.29503 7.45259 7.38473L7.4041 7.54959H6.44888C5.92279 7.54959 5.49124 7.54232 5.49124 7.5302C5.49124 7.5205 5.56155 7.26594 5.64883 6.96289C5.73611 6.65983 5.80641 6.3883 5.80641 6.36163C5.80641 6.33254 5.77975 6.28405 5.7458 6.25253C5.68762 6.19192 5.68034 6.19192 5.26577 6.19192H4.8415L4.82695 6.061C4.79058 5.77492 4.54814 5.44035 4.30328 5.33125C4.24267 5.30701 4.18933 5.28277 4.18691 5.28034C4.18206 5.27549 4.21357 5.20034 4.25964 5.10821C4.33237 4.96032 4.33964 4.92395 4.33964 4.73727C4.33964 4.56272 4.32995 4.50938 4.27176 4.38573C4.19903 4.22815 4.07538 4.08511 3.93719 3.99783C3.74809 3.87661 3.45473 3.83297 3.24866 3.89843ZM3.75536 4.34209C3.8887 4.43665 3.95174 4.56756 3.95174 4.7494C3.95174 5.02335 3.76506 5.21003 3.49352 5.21003C3.14926 5.21003 2.92863 4.92395 3.01591 4.59666C3.04986 4.47301 3.19774 4.313 3.31412 4.27906C3.44988 4.23784 3.64626 4.26451 3.75536 4.34209ZM7.82838 4.34209C7.96172 4.43665 8.02475 4.56756 8.02475 4.7494C8.02475 5.02335 7.83807 5.21003 7.56654 5.21003C7.22227 5.21003 7.00165 4.92395 7.08893 4.59666C7.12287 4.47301 7.27076 4.313 7.38713 4.27906C7.5229 4.23784 7.71928 4.26451 7.82838 4.34209ZM5.34578 6.59922C5.34578 6.61619 5.23668 7.00895 5.12515 7.38473L5.07667 7.54959H4.41238C4.04629 7.54959 3.74566 7.5399 3.74566 7.5302C3.74566 7.51323 3.85476 7.12047 3.96628 6.74226L4.01477 6.57983H4.67906C5.04515 6.57983 5.34578 6.58953 5.34578 6.59922ZM9.41879 6.59922C9.41879 6.61619 9.30969 7.00895 9.19817 7.38473L9.14968 7.54959H8.48539C8.11931 7.54959 7.81868 7.5399 7.81868 7.5302C7.81868 7.51323 7.92778 7.12047 8.0393 6.74226L8.08779 6.57983H8.75208C9.11816 6.57983 9.41879 6.58953 9.41879 6.59922Z" fill="#FFBB00"/>
<path d="M3.24866 3.89843C2.98925 3.98086 2.79772 4.14572 2.68619 4.38573C2.62801 4.50938 2.61831 4.56272 2.61831 4.73727C2.61831 4.92395 2.62558 4.96032 2.69832 5.10821C2.74438 5.20034 2.7759 5.27549 2.77105 5.28034C2.76862 5.28277 2.71529 5.30701 2.65468 5.33125C2.49466 5.40156 2.30314 5.60279 2.21101 5.79674L2.13343 5.9616L2.12615 6.65741L2.11888 7.35564H2.31283H2.50921V6.73499C2.50921 6.31799 2.51891 6.0804 2.5383 6.01252C2.57709 5.87917 2.77832 5.67795 2.91166 5.63916C3.04743 5.60036 3.91052 5.60036 4.04629 5.63916C4.17963 5.67795 4.38086 5.87917 4.41965 6.01252C4.47541 6.19919 4.48753 6.19192 4.12387 6.19192C3.84991 6.19192 3.79173 6.19919 3.74809 6.23314C3.71172 6.26465 3.66081 6.40769 3.56141 6.74954C3.48867 7.00895 3.40624 7.29503 3.37958 7.38473L3.33109 7.54959H2.53346H1.7334V7.74355V7.9375H6.00037H10.2673V7.74355V7.54959H9.9158C9.72184 7.54959 9.56426 7.54232 9.56426 7.5302C9.56426 7.5205 9.63456 7.26594 9.72184 6.96289C9.80912 6.65983 9.87943 6.3883 9.87943 6.36163C9.87943 6.33254 9.85276 6.28405 9.81882 6.25253C9.76063 6.19192 9.75336 6.19192 9.33879 6.19192H8.91451L8.89997 6.061C8.8636 5.77492 8.62116 5.44035 8.37629 5.33125C8.31568 5.30701 8.26235 5.28277 8.25992 5.28034C8.25507 5.27549 8.28659 5.20034 8.33265 5.10821C8.40539 4.96032 8.41266 4.92395 8.41266 4.73727C8.41266 4.56272 8.40296 4.50938 8.34478 4.38573C8.02475 3.69962 7.07923 3.69962 6.75921 4.38573C6.70102 4.50938 6.69133 4.56272 6.69133 4.73727C6.69133 4.92395 6.6986 4.96032 6.77133 5.10821C6.8174 5.20034 6.84891 5.27549 6.84406 5.28034C6.84164 5.28277 6.7883 5.30701 6.72769 5.33125C6.56768 5.40156 6.37615 5.60279 6.28402 5.79674L6.20644 5.9616L6.19917 6.65741L6.1919 7.35564H6.38585H6.58223V6.73499C6.58223 6.31799 6.59192 6.0804 6.61132 6.01252C6.65011 5.87917 6.85134 5.67795 6.98468 5.63916C7.12045 5.60036 7.98354 5.60036 8.11931 5.63916C8.25265 5.67795 8.45387 5.87917 8.49267 6.01252C8.54843 6.19919 8.56055 6.19192 8.19689 6.19192C7.92293 6.19192 7.86474 6.19919 7.8211 6.23314C7.78474 6.26465 7.73382 6.40769 7.63442 6.74954C7.56169 7.00895 7.47926 7.29503 7.45259 7.38473L7.4041 7.54959H6.44888C5.92279 7.54959 5.49124 7.54232 5.49124 7.5302C5.49124 7.5205 5.56155 7.26594 5.64883 6.96289C5.73611 6.65983 5.80641 6.3883 5.80641 6.36163C5.80641 6.33254 5.77975 6.28405 5.7458 6.25253C5.68762 6.19192 5.68034 6.19192 5.26577 6.19192H4.8415L4.82695 6.061C4.79058 5.77492 4.54814 5.44035 4.30328 5.33125C4.24267 5.30701 4.18933 5.28277 4.18691 5.28034C4.18206 5.27549 4.21357 5.20034 4.25964 5.10821C4.33237 4.96032 4.33964 4.92395 4.33964 4.73727C4.33964 4.56272 4.32995 4.50938 4.27176 4.38573C4.19903 4.22815 4.07538 4.08511 3.93719 3.99783C3.74809 3.87661 3.45473 3.83297 3.24866 3.89843ZM3.75536 4.34209C3.8887 4.43665 3.95174 4.56756 3.95174 4.7494C3.95174 5.02335 3.76506 5.21003 3.49352 5.21003C3.14926 5.21003 2.92863 4.92395 3.01591 4.59666C3.04986 4.47301 3.19774 4.313 3.31412 4.27906C3.44988 4.23784 3.64626 4.26451 3.75536 4.34209ZM7.82838 4.34209C7.96172 4.43665 8.02475 4.56756 8.02475 4.7494C8.02475 5.02335 7.83807 5.21003 7.56654 5.21003C7.22227 5.21003 7.00165 4.92395 7.08893 4.59666C7.12287 4.47301 7.27076 4.313 7.38713 4.27906C7.5229 4.23784 7.71928 4.26451 7.82838 4.34209ZM5.34578 6.59922C5.34578 6.61619 5.23668 7.00895 5.12515 7.38473L5.07667 7.54959H4.41238C4.04629 7.54959 3.74566 7.5399 3.74566 7.5302C3.74566 7.51323 3.85476 7.12047 3.96628 6.74226L4.01477 6.57983H4.67906C5.04515 6.57983 5.34578 6.58953 5.34578 6.59922ZM9.41879 6.59922C9.41879 6.61619 9.30969 7.00895 9.19817 7.38473L9.14968 7.54959H8.48539C8.11931 7.54959 7.81868 7.5399 7.81868 7.5302C7.81868 7.51323 7.92778 7.12047 8.0393 6.74226L8.08779 6.57983H8.75208C9.11816 6.57983 9.41879 6.58953 9.41879 6.59922Z" stroke="#FFBB00" stroke-width="0.2" mask="url(#path-3-outside-1_501_1738)"/>
</g>
<defs>
<filter id="filter0_d_501_1738" x="-3.19995" y="-2.20624" width="18.3999" height="18.4125" filterUnits="userSpaceOnUse" color-interpolation-filters="sRGB">
<feFlood flood-opacity="0" result="BackgroundImageFix"/>
<feColorMatrix in="SourceAlpha" type="matrix" values="0 0 0 0 0 0 0 0 0 0 0 0 0 0 0 0 0 0 127 0" result="hardAlpha"/>
<feOffset dy="1"/>
<feGaussianBlur stdDeviation="1.5"/>
<feComposite in2="hardAlpha" operator="out"/>
<feColorMatrix type="matrix" values="0 0 0 0 1 0 0 0 0 0.815755 0 0 0 0 0.309082 0 0 0 0.6 0"/>
<feBlend mode="normal" in2="BackgroundImageFix" result="effect1_dropShadow_501_1738"/>
<feBlend mode="normal" in="SourceGraphic" in2="effect1_dropShadow_501_1738" result="shape"/>
</filter>
</defs>
</svg>
